# xmcd
#
# Track frame offsets: 
#        150
#        17500
#        28245
#        42120
#        53960
#        66420
#        82670
#        90705
#        110120
#        119030
#        135540
#        148510
#        160670
#
# Disc length: 2376 seconds
#
# Revision: 0
# Processed by: cddbd v1.5.1PL0 Copyright (c) Steve Scherf et al.
# Submitted via: ExactAudioCopy v0.95a5
#
DISCID=af09460d
DTITLE=Loretta Lynn - Van Lear Rose
DYEAR=2004
DGENRE=Country
TTITLE0=Van Lear Rose
TTITLE1=Portland Oregon
TTITLE2=Trouble on the Line
TTITLE3=Family Tree
TTITLE4=Have Mercy
TTITLE5=High on a Mountain Top
TTITLE6=Little Red Shoes
TTITLE7=God Makes No Mistakes
TTITLE8=Women's Prison
TTITLE9=This Old House
TTITLE10=Mrs. Leroy Brown
TTITLE11=Miss Being Mrs.
TTITLE12=Story of My Life
EXTD=
EXTT0=
EXTT1=
EXTT2=
EXTT3=
EXTT4=
EXTT5=
EXTT6=
EXTT7=
EXTT8=
EXTT9=
EXTT10=
EXTT11=
EXTT12=
PLAYORDER=
